<?xml version="1.0" standalone="no"?>
<!DOCTYPE svg PUBLIC "-//W3C//DTD SVG 1.1//EN" "http://www.w3.org/Graphics/SVG/1.1/DTD/svg11.dtd">
<svg version="1.1" width="1200" height="214" onload="init(evt)" viewBox="0 0 1200 214" xmlns="http://www.w3.org/2000/svg" xmlns:xlink="http://www.w3.org/1999/xlink">
<!-- Flame graph stack visualization. See https://github.com/brendangregg/FlameGraph for latest version, and http://www.brendangregg.com/flamegraphs.html for examples. -->
<!-- NOTES:  -->
<defs>
	<linearGradient id="background" y1="0" y2="1" x1="0" x2="0" >
		<stop stop-color="#eeeeee" offset="5%" />
		<stop stop-color="#eeeeb0" offset="95%" />
	</linearGradient>
</defs>
<style type="text/css">
	text { font-family:Verdana; font-size:12px; fill:rgb(0,0,0); }
	#search, #ignorecase { opacity:0.1; cursor:pointer; }
	#search:hover, #search.show, #ignorecase:hover, #ignorecase.show { opacity:1; }
	#subtitle { text-anchor:middle; font-color:rgb(160,160,160); }
	#title { text-anchor:middle; font-size:17px}
	#unzoom { cursor:pointer; }
	#frames > *:hover { stroke:black; stroke-width:0.5; cursor:pointer; }
	.hide { display:none; }
	.parent { opacity:0.5; }
</style>
<script type="text/ecmascript">
<![CDATA[
	"use strict";
	var details, searchbtn, unzoombtn, matchedtxt, svg, searching, currentSearchTerm, ignorecase, ignorecaseBtn;
	function init(evt) {
		details = document.getElementById("details").firstChild;
		searchbtn = document.getElementById("search");
		ignorecaseBtn = document.getElementById("ignorecase");
		unzoombtn = document.getElementById("unzoom");
		matchedtxt = document.getElementById("matched");
		svg = document.getElementsByTagName("svg")[0];
		searching = 0;
		currentSearchTerm = null;

		// use GET parameters to restore a flamegraphs state.
		var params = get_params();
		if (params.x && params.y)
			zoom(find_group(document.querySelector('[x="' + params.x + '"][y="' + params.y + '"]')));
                if (params.s) search(params.s);
	}

	// event listeners
	window.addEventListener("click", function(e) {
		var target = find_group(e.target);
		if (target) {
			if (target.nodeName == "a") {
				if (e.ctrlKey === false) return;
				e.preventDefault();
			}
			if (target.classList.contains("parent")) unzoom(true);
			zoom(target);
			if (!document.querySelector('.parent')) {
				// we have basically done a clearzoom so clear the url
				var params = get_params();
				if (params.x) delete params.x;
				if (params.y) delete params.y;
				history.replaceState(null, null, parse_params(params));
				unzoombtn.classList.add("hide");
				return;
			}

			// set parameters for zoom state
			var el = target.querySelector("rect");
			if (el && el.attributes && el.attributes.y && el.attributes._orig_x) {
				var params = get_params()
				params.x = el.attributes._orig_x.value;
				params.y = el.attributes.y.value;
				history.replaceState(null, null, parse_params(params));
			}
		}
		else if (e.target.id == "unzoom") clearzoom();
		else if (e.target.id == "search") search_prompt();
		else if (e.target.id == "ignorecase") toggle_ignorecase();
	}, false)

	// mouse-over for info
	// show
	window.addEventListener("mouseover", function(e) {
		var target = find_group(e.target);
		if (target) details.nodeValue = "VI: " + g_to_text(target);
	}, false)

	// clear
	window.addEventListener("mouseout", function(e) {
		var target = find_group(e.target);
		if (target) details.nodeValue = ' ';
	}, false)

	// ctrl-F for search
	// ctrl-I to toggle case-sensitive search
	window.addEventListener("keydown",function (e) {
		if (e.keyCode === 114 || (e.ctrlKey && e.keyCode === 70)) {
			e.preventDefault();
			search_prompt();
		}
		else if (e.ctrlKey && e.keyCode === 73) {
			e.preventDefault();
			toggle_ignorecase();
		}
	}, false)

	// functions
	function get_params() {
		var params = {};
		var paramsarr = window.location.search.substr(1).split('&');
		for (var i = 0; i < paramsarr.length; ++i) {
			var tmp = paramsarr[i].split("=");
			if (!tmp[0] || !tmp[1]) continue;
			params[tmp[0]]  = decodeURIComponent(tmp[1]);
		}
		return params;
	}
	function parse_params(params) {
		var uri = "?";
		for (var key in params) {
			uri += key + '=' + encodeURIComponent(params[key]) + '&';
		}
		if (uri.slice(-1) == "&")
			uri = uri.substring(0, uri.length - 1);
		if (uri == '?')
			uri = window.location.href.split('?')[0];
		return uri;
	}
	function find_child(node, selector) {
		var children = node.querySelectorAll(selector);
		if (children.length) return children[0];
	}
	function find_group(node) {
		var parent = node.parentElement;
		if (!parent) return;
		if (parent.id == "frames") return node;
		return find_group(parent);
	}
	function orig_save(e, attr, val) {
		if (e.attributes["_orig_" + attr] != undefined) return;
		if (e.attributes[attr] == undefined) return;
		if (val == undefined) val = e.attributes[attr].value;
		e.setAttribute("_orig_" + attr, val);
	}
	function orig_load(e, attr) {
		if (e.attributes["_orig_"+attr] == undefined) return;
		e.attributes[attr].value = e.attributes["_orig_" + attr].value;
		e.removeAttribute("_orig_"+attr);
	}
	function g_to_text(e) {
		var text = find_child(e, "title").firstChild.nodeValue;
		return (text)
	}
	function g_to_func(e) {
		var func = g_to_text(e);
		// if there's any manipulation we want to do to the function
		// name before it's searched, do it here before returning.
		return (func);
	}
	function update_text(e) {
		var r = find_child(e, "rect");
		var t = find_child(e, "text");
		var w = parseFloat(r.attributes.width.value) -3;
		var txt = find_child(e, "title").textContent.replace(/\([^(]*\)$/,"");
		t.attributes.x.value = parseFloat(r.attributes.x.value) + 3;

		// Smaller than this size won't fit anything
		if (w < 2 * 12 * 0.59) {
			t.textContent = "";
			return;
		}

		t.textContent = txt;
		var sl = t.getSubStringLength(0, txt.length);
		// check if only whitespace or if we can fit the entire string into width w
		if (/^ *$/.test(txt) || sl < w)
			return;

		// this isn't perfect, but gives a good starting point
		// and avoids calling getSubStringLength too often
		var start = Math.floor((w/sl) * txt.length);
		for (var x = start; x > 0; x = x-2) {
			if (t.getSubStringLength(0, x + 2) <= w) {
				t.textContent = txt.substring(0, x) + "..";
				return;
			}
		}
		t.textContent = "";
	}

	// zoom
	function zoom_reset(e) {
		if (e.attributes != undefined) {
			orig_load(e, "x");
			orig_load(e, "width");
		}
		if (e.childNodes == undefined) return;
		for (var i = 0, c = e.childNodes; i < c.length; i++) {
			zoom_reset(c[i]);
		}
	}
	function zoom_child(e, x, ratio) {
		if (e.attributes != undefined) {
			if (e.attributes.x != undefined) {
				orig_save(e, "x");
				e.attributes.x.value = (parseFloat(e.attributes.x.value) - x - 10) * ratio + 10;
				if (e.tagName == "text")
					e.attributes.x.value = find_child(e.parentNode, "rect[x]").attributes.x.value + 3;
			}
			if (e.attributes.width != undefined) {
				orig_save(e, "width");
				e.attributes.width.value = parseFloat(e.attributes.width.value) * ratio;
			}
		}

		if (e.childNodes == undefined) return;
		for (var i = 0, c = e.childNodes; i < c.length; i++) {
			zoom_child(c[i], x - 10, ratio);
		}
	}
	function zoom_parent(e) {
		if (e.attributes) {
			if (e.attributes.x != undefined) {
				orig_save(e, "x");
				e.attributes.x.value = 10;
			}
			if (e.attributes.width != undefined) {
				orig_save(e, "width");
				e.attributes.width.value = parseInt(svg.width.baseVal.value) - (10 * 2);
			}
		}
		if (e.childNodes == undefined) return;
		for (var i = 0, c = e.childNodes; i < c.length; i++) {
			zoom_parent(c[i]);
		}
	}
	function zoom(node) {
		var attr = find_child(node, "rect").attributes;
		var width = parseFloat(attr.width.value);
		var xmin = parseFloat(attr.x.value);
		var xmax = parseFloat(xmin + width);
		var ymin = parseFloat(attr.y.value);
		var ratio = (svg.width.baseVal.value - 2 * 10) / width;

		// XXX: Workaround for JavaScript float issues (fix me)
		var fudge = 0.0001;

		unzoombtn.classList.remove("hide");

		var el = document.getElementById("frames").children;
		for (var i = 0; i < el.length; i++) {
			var e = el[i];
			var a = find_child(e, "rect").attributes;
			var ex = parseFloat(a.x.value);
			var ew = parseFloat(a.width.value);
			var upstack;
			// Is it an ancestor
			if (0 == 0) {
				upstack = parseFloat(a.y.value) > ymin;
			} else {
				upstack = parseFloat(a.y.value) < ymin;
			}
			if (upstack) {
				// Direct ancestor
				if (ex <= xmin && (ex+ew+fudge) >= xmax) {
					e.classList.add("parent");
					zoom_parent(e);
					update_text(e);
				}
				// not in current path
				else
					e.classList.add("hide");
			}
			// Children maybe
			else {
				// no common path
				if (ex < xmin || ex + fudge >= xmax) {
					e.classList.add("hide");
				}
				else {
					zoom_child(e, xmin, ratio);
					update_text(e);
				}
			}
		}
		search();
	}
	function unzoom(dont_update_text) {
		unzoombtn.classList.add("hide");
		var el = document.getElementById("frames").children;
		for(var i = 0; i < el.length; i++) {
			el[i].classList.remove("parent");
			el[i].classList.remove("hide");
			zoom_reset(el[i]);
			if(!dont_update_text) update_text(el[i]);
		}
		search();
	}
	function clearzoom() {
		unzoom();

		// remove zoom state
		var params = get_params();
		if (params.x) delete params.x;
		if (params.y) delete params.y;
		history.replaceState(null, null, parse_params(params));
	}

	// search
	function toggle_ignorecase() {
		ignorecase = !ignorecase;
		if (ignorecase) {
			ignorecaseBtn.classList.add("show");
		} else {
			ignorecaseBtn.classList.remove("show");
		}
		reset_search();
		search();
	}
	function reset_search() {
		var el = document.querySelectorAll("#frames rect");
		for (var i = 0; i < el.length; i++) {
			orig_load(el[i], "fill")
		}
		var params = get_params();
		delete params.s;
		history.replaceState(null, null, parse_params(params));
	}
	function search_prompt() {
		if (!searching) {
			var term = prompt("Enter a search term (regexp " +
			    "allowed, eg: ^ext4_)"
			    + (ignorecase ? ", ignoring case" : "")
			    + "\nPress Ctrl-i to toggle case sensitivity", "");
			if (term != null) search(term);
		} else {
			reset_search();
			searching = 0;
			currentSearchTerm = null;
			searchbtn.classList.remove("show");
			searchbtn.firstChild.nodeValue = "Search"
			matchedtxt.classList.add("hide");
			matchedtxt.firstChild.nodeValue = ""
		}
	}
	function search(term) {
		if (term) currentSearchTerm = term;

		var re = new RegExp(currentSearchTerm, ignorecase ? 'i' : '');
		var el = document.getElementById("frames").children;
		var matches = new Object();
		var maxwidth = 0;
		for (var i = 0; i < el.length; i++) {
			var e = el[i];
			var func = g_to_func(e);
			var rect = find_child(e, "rect");
			if (func == null || rect == null)
				continue;

			// Save max width. Only works as we have a root frame
			var w = parseFloat(rect.attributes.width.value);
			if (w > maxwidth)
				maxwidth = w;

			if (func.match(re)) {
				// highlight
				var x = parseFloat(rect.attributes.x.value);
				orig_save(rect, "fill");
				rect.attributes.fill.value = "rgb(230,0,230)";

				// remember matches
				if (matches[x] == undefined) {
					matches[x] = w;
				} else {
					if (w > matches[x]) {
						// overwrite with parent
						matches[x] = w;
					}
				}
				searching = 1;
			}
		}
		if (!searching)
			return;
		var params = get_params();
		params.s = currentSearchTerm;
		history.replaceState(null, null, parse_params(params));

		searchbtn.classList.add("show");
		searchbtn.firstChild.nodeValue = "Reset Search";

		// calculate percent matched, excluding vertical overlap
		var count = 0;
		var lastx = -1;
		var lastw = 0;
		var keys = Array();
		for (k in matches) {
			if (matches.hasOwnProperty(k))
				keys.push(k);
		}
		// sort the matched frames by their x location
		// ascending, then width descending
		keys.sort(function(a, b){
			return a - b;
		});
		// Step through frames saving only the biggest bottom-up frames
		// thanks to the sort order. This relies on the tree property
		// where children are always smaller than their parents.
		var fudge = 0.0001;	// JavaScript floating point
		for (var k in keys) {
			var x = parseFloat(keys[k]);
			var w = matches[keys[k]];
			if (x >= lastx + lastw - fudge) {
				count += w;
				lastx = x;
				lastw = w;
			}
		}
		// display matched percent
		matchedtxt.classList.remove("hide");
		var pct = 100 * count / maxwidth;
		if (pct != 100) pct = pct.toFixed(1)
		matchedtxt.firstChild.nodeValue = "Matched: " + pct + "%";
	}
]]>
</script>
<rect x="0.0" y="0" width="1200.0" height="214.0" fill="url(#background)"  />
<text id="title" x="600.00" y="24" >gRPC Time Analysis</text>
<text id="details" x="10.00" y="197" > </text>
<text id="unzoom" x="10.00" y="24" class="hide">Reset Zoom</text>
<text id="search" x="1090.00" y="24" >Search</text>
<text id="ignorecase" x="1174.00" y="24" >ic</text>
<text id="matched" x="1090.00" y="197" > </text>
<g id="frames">
<g >
<title>Update SyncMethod Event Structure.vi (34 millisecond(s), 0.10%)</title><rect x="1094.6" y="117" width="1.2" height="15.0" fill="rgb(215,133,54)" rx="2" ry="2" />
<text  x="1097.65" y="127.5" ></text>
</g>
<g >
<title>Traverse for GObjects.vi (27 millisecond(s), 0.08%)</title><rect x="668.6" y="69" width="1.0" height="15.0" fill="rgb(246,146,44)" rx="2" ry="2" />
<text  x="671.63" y="79.5" ></text>
</g>
<g >
<title>Get SubVI References (by Pattern).vi (16 millisecond(s), 0.05%)</title><rect x="650.5" y="69" width="0.6" height="15.0" fill="rgb(243,27,13)" rx="2" ry="2" />
<text  x="653.51" y="79.5" ></text>
</g>
<g >
<title>Create Virtual FolderItem.vi (14 millisecond(s), 0.04%)</title><rect x="587.3" y="85" width="0.4" height="15.0" fill="rgb(241,105,46)" rx="2" ry="2" />
<text  x="590.27" y="95.5" ></text>
</g>
<g >
<title>Create Oneof Message Converters.vi (147 millisecond(s), 0.43%)</title><rect x="302.2" y="101" width="5.1" height="15.0" fill="rgb(237,79,15)" rx="2" ry="2" />
<text  x="305.19" y="111.5" ></text>
</g>
<g >
<title>Save Library.vi (784 millisecond(s), 2.31%)</title><rect x="1162.7" y="133" width="27.3" height="15.0" fill="rgb(230,166,31)" rx="2" ry="2" />
<text  x="1165.72" y="143.5" >S..</text>
</g>
<g >
<title>Delete Oneof Template Files.vi (63 millisecond(s), 0.19%)</title><rect x="267.3" y="117" width="2.2" height="15.0" fill="rgb(241,11,40)" rx="2" ry="2" />
<text  x="270.28" y="127.5" ></text>
</g>
<g >
<title>Add Server Library to Project.vi (831 millisecond(s), 2.45%)</title><rect x="10.9" y="133" width="28.9" height="15.0" fill="rgb(209,63,22)" rx="2" ry="2" />
<text  x="13.86" y="143.5" >Ad..</text>
</g>
<g >
<title>Create Message Data Clusters (complex).vi (104 millisecond(s), 0.31%)</title><rect x="271.4" y="101" width="3.6" height="15.0" fill="rgb(242,97,18)" rx="2" ry="2" />
<text  x="274.41" y="111.5" ></text>
</g>
<g >
<title>Add LVClass to Lib.vi (296 millisecond(s), 0.87%)</title><rect x="1115.7" y="101" width="10.3" height="15.0" fill="rgb(241,11,50)" rx="2" ry="2" />
<text  x="1118.68" y="111.5" ></text>
</g>
<g >
<title>Get Constant (by Name).vi (6 millisecond(s), 0.02%)</title><rect x="393.6" y="85" width="0.2" height="15.0" fill="rgb(217,118,21)" rx="2" ry="2" />
<text  x="396.58" y="95.5" ></text>
</g>
<g >
<title>Update Methods Event Structures.vi (206 millisecond(s), 0.61%)</title><rect x="986.5" y="101" width="7.2" height="15.0" fill="rgb(241,181,34)" rx="2" ry="2" />
<text  x="989.49" y="111.5" ></text>
</g>
<g >
<title>Get Event Structure (by Name).vi (3 millisecond(s), 0.01%)</title><rect x="1095.2" y="101" width="0.1" height="15.0" fill="rgb(216,147,52)" rx="2" ry="2" />
<text  x="1098.15" y="111.5" ></text>
</g>
<g >
<title>Get SubVI Reference (by Name).vi (7 millisecond(s), 0.02%)</title><rect x="977.1" y="69" width="0.2" height="15.0" fill="rgb(227,146,47)" rx="2" ry="2" />
<text  x="980.09" y="79.5" ></text>
</g>
<g >
<title>Log CodeGen Run.vi (3 millisecond(s), 0.01%)</title><rect x="1157.5" y="133" width="0.1" height="15.0" fill="rgb(252,59,43)" rx="2" ry="2" />
<text  x="1160.51" y="143.5" ></text>
</g>
<g >
<title>Replace SubVI (by Name).vi (28 millisecond(s), 0.08%)</title><rect x="67.0" y="101" width="1.0" height="15.0" fill="rgb(243,198,23)" rx="2" ry="2" />
<text  x="70.02" y="111.5" ></text>
</g>
<g >
<title>Close Project.vi (3,932 millisecond(s), 11.60%)</title><rect x="68.0" y="133" width="136.9" height="15.0" fill="rgb(245,48,39)" rx="2" ry="2" />
<text  x="70.99" y="143.5" >Close Project.vi</text>
</g>
<g >
<title>Open Library.vi (272 millisecond(s), 0.80%)</title><rect x="557.4" y="101" width="9.4" height="15.0" fill="rgb(250,60,34)" rx="2" ry="2" />
<text  x="560.36" y="111.5" ></text>
</g>
<g >
<title>Open Project.vi (553 millisecond(s), 1.63%)</title><rect x="18.3" y="117" width="19.3" height="15.0" fill="rgb(238,180,10)" rx="2" ry="2" />
<text  x="21.33" y="127.5" ></text>
</g>
<g >
<title>Set Frame User Events.vi (23 millisecond(s), 0.07%)</title><rect x="991.8" y="85" width="0.8" height="15.0" fill="rgb(215,157,43)" rx="2" ry="2" />
<text  x="994.83" y="95.5" ></text>
</g>
<g >
<title>Get Control (by Name).vi (21 millisecond(s), 0.06%)</title><rect x="1101.8" y="85" width="0.8" height="15.0" fill="rgb(221,168,5)" rx="2" ry="2" />
<text  x="1104.84" y="95.5" ></text>
</g>
<g >
<title>Get Or Create Typedef.vi (119 millisecond(s), 0.35%)</title><rect x="276.7" y="69" width="4.1" height="15.0" fill="rgb(230,209,13)" rx="2" ry="2" />
<text  x="279.68" y="79.5" ></text>
</g>
<g >
<title>Open Library.vi (47 millisecond(s), 0.14%)</title><rect x="56.3" y="117" width="1.6" height="15.0" fill="rgb(237,146,12)" rx="2" ry="2" />
<text  x="59.30" y="127.5" ></text>
</g>
<g >
<title>Add RPC Impl VIs.vi (323 millisecond(s), 0.95%)</title><rect x="1095.8" y="117" width="11.3" height="15.0" fill="rgb(247,77,35)" rx="2" ry="2" />
<text  x="1098.84" y="127.5" ></text>
</g>
<g >
<title>Copy Library Item.vi (451 millisecond(s), 1.33%)</title><rect x="40.5" y="117" width="15.7" height="15.0" fill="rgb(237,104,1)" rx="2" ry="2" />
<text  x="43.52" y="127.5" ></text>
</g>
<g >
<title>Create Types.vi (6 millisecond(s), 0.02%)</title><rect x="1162.4" y="117" width="0.2" height="15.0" fill="rgb(211,82,49)" rx="2" ry="2" />
<text  x="1165.35" y="127.5" ></text>
</g>
<g >
<title>Get ControlRef from ClassItem.vi (7 millisecond(s), 0.02%)</title><rect x="975.8" y="69" width="0.3" height="15.0" fill="rgb(209,19,35)" rx="2" ry="2" />
<text  x="978.83" y="79.5" ></text>
</g>
<g >
<title>Create Message Data Clusters (simple).vi (272 millisecond(s), 0.80%)</title><rect x="275.0" y="85" width="9.5" height="15.0" fill="rgb(209,153,0)" rx="2" ry="2" />
<text  x="278.02" y="95.5" ></text>
</g>
<g >
<title>Get ControlRef from LibraryItem.vi (13 millisecond(s), 0.04%)</title><rect x="274.4" y="85" width="0.4" height="15.0" fill="rgb(221,32,13)" rx="2" ry="2" />
<text  x="277.38" y="95.5" ></text>
</g>
<g >
<title>Display Loader.vi (19 millisecond(s), 0.06%)</title><rect x="269.5" y="133" width="0.7" height="15.0" fill="rgb(212,54,30)" rx="2" ry="2" />
<text  x="272.51" y="143.5" ></text>
</g>
<g >
<title>Create Message Metadata.vi (5 millisecond(s), 0.01%)</title><rect x="1162.4" y="101" width="0.1" height="15.0" fill="rgb(208,77,25)" rx="2" ry="2" />
<text  x="1165.35" y="111.5" ></text>
</g>
<g >
<title>Create Method Metadata.vi (10 millisecond(s), 0.03%)</title><rect x="1160.4" y="101" width="0.3" height="15.0" fill="rgb(251,29,21)" rx="2" ry="2" />
<text  x="1163.39" y="111.5" ></text>
</g>
<g >
<title>Get ControlRef from LibraryItem.vi (4 millisecond(s), 0.01%)</title><rect x="1030.8" y="101" width="0.1" height="15.0" fill="rgb(217,5,32)" rx="2" ry="2" />
<text  x="1033.76" y="111.5" ></text>
</g>
<g >
<title>Set Frame User Events.vi (16 millisecond(s), 0.05%)</title><rect x="1095.3" y="101" width="0.5" height="15.0" fill="rgb(226,10,23)" rx="2" ry="2" />
<text  x="1098.28" y="111.5" ></text>
</g>
<g >
<title>Get Event SubDiagram Terminals.vi (61 millisecond(s), 0.18%)</title><rect x="1150.2" y="101" width="2.1" height="15.0" fill="rgb(238,47,43)" rx="2" ry="2" />
<text  x="1153.17" y="111.5" ></text>
</g>
<g >
<title>Drop RPC SubVI in Event Case.vi (87 millisecond(s), 0.26%)</title><rect x="1147.0" y="101" width="3.0" height="15.0" fill="rgb(251,105,31)" rx="2" ry="2" />
<text  x="1150.01" y="111.5" ></text>
</g>
<g >
<title>Update Message Setter.vi (595 millisecond(s), 1.76%)</title><rect x="371.2" y="85" width="20.7" height="15.0" fill="rgb(236,64,1)" rx="2" ry="2" />
<text  x="374.18" y="95.5" ></text>
</g>
<g >
<title>Wire Two Terminals.vi (9 millisecond(s), 0.03%)</title><rect x="301.9" y="69" width="0.3" height="15.0" fill="rgb(227,173,40)" rx="2" ry="2" />
<text  x="304.87" y="79.5" ></text>
</g>
<g >
<title>Get Control (by Name).vi (7 millisecond(s), 0.02%)</title><rect x="373.2" y="69" width="0.3" height="15.0" fill="rgb(231,36,52)" rx="2" ry="2" />
<text  x="376.25" y="79.5" ></text>
</g>
<g >
<title>Get SubVI Terminal (by Name).vi (11 millisecond(s), 0.03%)</title><rect x="306.3" y="69" width="0.4" height="15.0" fill="rgb(214,40,47)" rx="2" ry="2" />
<text  x="309.31" y="79.5" ></text>
</g>
<g >
<title>Drop RPC Methods in SyncMethod Event Structure.vi (323 millisecond(s), 0.95%)</title><rect x="1141.5" y="117" width="11.2" height="15.0" fill="rgb(207,41,2)" rx="2" ry="2" />
<text  x="1144.50" y="127.5" ></text>
</g>
<g >
<title>Get Bundler.vi (8 millisecond(s), 0.02%)</title><rect x="300.9" y="69" width="0.2" height="15.0" fill="rgb(231,139,11)" rx="2" ry="2" />
<text  x="303.86" y="79.5" ></text>
</g>
<g >
<title>Replace Class References.vi (46 millisecond(s), 0.14%)</title><rect x="1101.0" y="101" width="1.6" height="15.0" fill="rgb(235,205,39)" rx="2" ry="2" />
<text  x="1103.98" y="111.5" ></text>
</g>
<g >
<title>Add LVClass to Lib.vi (3,433 millisecond(s), 10.13%)</title><rect x="394.7" y="101" width="119.5" height="15.0" fill="rgb(253,97,47)" rx="2" ry="2" />
<text  x="397.71" y="111.5" >Add LVClass to..</text>
</g>
<g >
<title>Get Src-Sink Terminal by Name.vi (29 millisecond(s), 0.09%)</title><rect x="1149.0" y="69" width="1.0" height="15.0" fill="rgb(229,13,0)" rx="2" ry="2" />
<text  x="1152.03" y="79.5" ></text>
</g>
<g >
<title>Open Library.vi (117 millisecond(s), 0.35%)</title><rect x="248.2" y="117" width="4.1" height="15.0" fill="rgb(239,34,11)" rx="2" ry="2" />
<text  x="251.20" y="127.5" ></text>
</g>
<g >
<title>Application Directory.vi (9 millisecond(s), 0.03%)</title><rect x="205.5" y="117" width="0.4" height="15.0" fill="rgb(239,109,51)" rx="2" ry="2" />
<text  x="208.54" y="127.5" ></text>
</g>
<g >
<title>Update Method Setter.vi (69 millisecond(s), 0.20%)</title><rect x="984.1" y="85" width="2.4" height="15.0" fill="rgb(219,38,14)" rx="2" ry="2" />
<text  x="987.10" y="95.5" ></text>
</g>
<g >
<title>Add Event Structure Frame.vi (14 millisecond(s), 0.04%)</title><rect x="1094.7" y="101" width="0.4" height="15.0" fill="rgb(205,68,1)" rx="2" ry="2" />
<text  x="1097.65" y="111.5" ></text>
</g>
<g >
<title>Add User Code Library to Project.vi (810 millisecond(s), 2.39%)</title><rect x="39.8" y="133" width="28.2" height="15.0" fill="rgb(219,79,12)" rx="2" ry="2" />
<text  x="42.79" y="143.5" >A..</text>
</g>
<g >
<title>Script Rich to Flat Conversion.vi (40 millisecond(s), 0.12%)</title><rect x="300.8" y="85" width="1.4" height="15.0" fill="rgb(237,202,5)" rx="2" ry="2" />
<text  x="303.80" y="95.5" ></text>
</g>
<g >
<title>Update Server Start Async.vi (548 millisecond(s), 1.62%)</title><rect x="993.7" y="101" width="19.1" height="15.0" fill="rgb(254,0,5)" rx="2" ry="2" />
<text  x="996.67" y="111.5" ></text>
</g>
<g >
<title>Get VIRef from Library.vi (5 millisecond(s), 0.01%)</title><rect x="274.8" y="85" width="0.2" height="15.0" fill="rgb(238,191,32)" rx="2" ry="2" />
<text  x="277.84" y="95.5" ></text>
</g>
<g >
<title>Create Data Clusters for Types.vi (1,031 millisecond(s), 3.04%)</title><rect x="271.4" y="117" width="35.9" height="15.0" fill="rgb(233,73,27)" rx="2" ry="2" />
<text  x="274.41" y="127.5" >Cre..</text>
</g>
<g >
<title>Get Unbundler.vi (7 millisecond(s), 0.02%)</title><rect x="301.6" y="69" width="0.2" height="15.0" fill="rgb(213,191,40)" rx="2" ry="2" />
<text  x="304.59" y="79.5" ></text>
</g>
<g >
<title>Get Constant (by Name).vi (5 millisecond(s), 0.01%)</title><rect x="373.1" y="69" width="0.1" height="15.0" fill="rgb(211,134,23)" rx="2" ry="2" />
<text  x="376.07" y="79.5" ></text>
</g>
<g >
<title>Get Control (by Name).vi (7 millisecond(s), 0.02%)</title><rect x="985.2" y="69" width="0.2" height="15.0" fill="rgb(254,205,36)" rx="2" ry="2" />
<text  x="988.20" y="79.5" ></text>
</g>
<g >
<title>Create Message Getter (from Template).vi (626 millisecond(s), 1.85%)</title><rect x="307.3" y="69" width="21.8" height="15.0" fill="rgb(241,78,4)" rx="2" ry="2" />
<text  x="310.31" y="79.5" >C..</text>
</g>
<g >
<title>Populate gRPC Events.vi (538 millisecond(s), 1.59%)</title><rect x="1012.8" y="117" width="18.7" height="15.0" fill="rgb(254,211,42)" rx="2" ry="2" />
<text  x="1015.76" y="127.5" ></text>
</g>
<g >
<title>Create Oneof Message Converter Skeletons.vi (373 millisecond(s), 1.10%)</title><rect x="284.5" y="101" width="13.0" height="15.0" fill="rgb(211,168,11)" rx="2" ry="2" />
<text  x="287.48" y="111.5" ></text>
</g>
<g >
<title>Connect Terminals.vi (516 millisecond(s), 1.52%)</title><rect x="993.7" y="85" width="18.0" height="15.0" fill="rgb(253,31,7)" rx="2" ry="2" />
<text  x="996.72" y="95.5" ></text>
</g>
<g >
<title>Create Server Library from Template.vi (1,361 millisecond(s), 4.02%)</title><rect x="204.9" y="133" width="47.4" height="15.0" fill="rgb(254,54,48)" rx="2" ry="2" />
<text  x="207.90" y="143.5" >Crea..</text>
</g>
<g >
<title>Get NamedBundler.vi (16 millisecond(s), 0.05%)</title><rect x="650.0" y="69" width="0.5" height="15.0" fill="rgb(244,191,40)" rx="2" ry="2" />
<text  x="652.96" y="79.5" ></text>
</g>
<g >
<title>Add TypeDef to Cluster.vi (35 millisecond(s), 0.10%)</title><rect x="271.5" y="85" width="1.3" height="15.0" fill="rgb(221,147,3)" rx="2" ry="2" />
<text  x="274.52" y="95.5" ></text>
</g>
<g >
<title>Save VI at Path.vi (498 millisecond(s), 1.47%)</title><rect x="353.9" y="69" width="17.3" height="15.0" fill="rgb(247,97,41)" rx="2" ry="2" />
<text  x="356.85" y="79.5" ></text>
</g>
<g >
<title>Create Message Data Clusters.vi (272 millisecond(s), 0.80%)</title><rect x="275.0" y="101" width="9.5" height="15.0" fill="rgb(237,50,7)" rx="2" ry="2" />
<text  x="278.02" y="111.5" ></text>
</g>
<g >
<title>Get NamedBundler.vi (16 millisecond(s), 0.05%)</title><rect x="976.4" y="69" width="0.6" height="15.0" fill="rgb(235,93,4)" rx="2" ry="2" />
<text  x="979.44" y="79.5" ></text>
</g>
<g >
<title>Update Message Getter.vi (627 millisecond(s), 1.85%)</title><rect x="349.3" y="85" width="21.9" height="15.0" fill="rgb(231,103,35)" rx="2" ry="2" />
<text  x="352.35" y="95.5" >U..</text>
</g>
<g >
<title>Main.vi (33,895 millisecond(s), 100.00%)</title><rect x="10.0" y="149" width="1180.0" height="15.0" fill="rgb(246,39,18)" rx="2" ry="2" />
<text  x="13.00" y="159.5" >Main.vi</text>
</g>
<g >
<title>Create Message Setter (from Template).vi (580 millisecond(s), 1.71%)</title><rect x="329.1" y="69" width="20.2" height="15.0" fill="rgb(252,104,35)" rx="2" ry="2" />
<text  x="332.13" y="79.5" ></text>
</g>
<g >
<title>Create Message Data Cluster.vi (47 millisecond(s), 0.14%)</title><rect x="275.0" y="69" width="1.7" height="15.0" fill="rgb(220,6,35)" rx="2" ry="2" />
<text  x="278.03" y="79.5" ></text>
</g>
<g >
<title>Open Project.vi (80 millisecond(s), 0.24%)</title><rect x="1157.6" y="133" width="2.8" height="15.0" fill="rgb(220,136,19)" rx="2" ry="2" />
<text  x="1160.62" y="143.5" ></text>
</g>
<g >
<title>Save Project.vi (64 millisecond(s), 0.19%)</title><rect x="37.6" y="117" width="2.2" height="15.0" fill="rgb(213,68,43)" rx="2" ry="2" />
<text  x="40.57" y="127.5" ></text>
</g>
<g >
<title>Save VI at Path.vi (31 millisecond(s), 0.09%)</title><rect x="270.3" y="117" width="1.1" height="15.0" fill="rgb(235,135,47)" rx="2" ry="2" />
<text  x="273.32" y="127.5" ></text>
</g>
<g >
<title>Copy Library Item.vi (281 millisecond(s), 0.83%)</title><rect x="1126.0" y="101" width="9.8" height="15.0" fill="rgb(217,17,5)" rx="2" ry="2" />
<text  x="1128.98" y="111.5" ></text>
</g>
<g >
<title>Update Bind Method Controls.vi (51 millisecond(s), 0.15%)</title><rect x="669.6" y="85" width="1.8" height="15.0" fill="rgb(236,67,36)" rx="2" ry="2" />
<text  x="672.58" y="95.5" ></text>
</g>
<g >
<title>Get SubVI References.vi (12 millisecond(s), 0.04%)</title><rect x="983.3" y="69" width="0.4" height="15.0" fill="rgb(233,198,19)" rx="2" ry="2" />
<text  x="986.34" y="79.5" ></text>
</g>
<g >
<title>Log gRPC Data.vi (3 millisecond(s), 0.01%)</title><rect x="1157.5" y="117" width="0.1" height="15.0" fill="rgb(205,112,2)" rx="2" ry="2" />
<text  x="1160.51" y="127.5" ></text>
</g>
<g >
<title>UDCLogUsageData.vi (3 millisecond(s), 0.01%)</title><rect x="1157.5" y="101" width="0.1" height="15.0" fill="rgb(213,111,10)" rx="2" ry="2" />
<text  x="1160.51" y="111.5" ></text>
</g>
<g >
<title>Delete Control from Cluster.vi (46 millisecond(s), 0.14%)</title><rect x="272.8" y="85" width="1.6" height="15.0" fill="rgb(214,155,5)" rx="2" ry="2" />
<text  x="275.76" y="95.5" ></text>
</g>
<g >
<title>Create Server Class from Template.vi (4,968 millisecond(s), 14.66%)</title><rect x="393.9" y="117" width="172.9" height="15.0" fill="rgb(236,177,22)" rx="2" ry="2" />
<text  x="396.89" y="127.5" >Create Server Class fr..</text>
</g>
<g >
<title>Generate Stub Service.vi (20,163 millisecond(s), 59.49%)</title><rect x="393.9" y="133" width="701.9" height="15.0" fill="rgb(208,211,27)" rx="2" ry="2" />
<text  x="396.89" y="143.5" >Generate Stub Service.vi</text>
</g>
<g >
<title>Save LVClass.vi (129 millisecond(s), 0.38%)</title><rect x="1102.6" y="101" width="4.5" height="15.0" fill="rgb(222,122,14)" rx="2" ry="2" />
<text  x="1105.57" y="111.5" ></text>
</g>
<g >
<title>Add Event Structure Frame.vi (143 millisecond(s), 0.42%)</title><rect x="986.5" y="85" width="5.0" height="15.0" fill="rgb(250,31,9)" rx="2" ry="2" />
<text  x="989.50" y="95.5" ></text>
</g>
<g >
<title>Set NamedBundler Input Count.vi (14 millisecond(s), 0.04%)</title><rect x="651.1" y="69" width="0.5" height="15.0" fill="rgb(241,11,31)" rx="2" ry="2" />
<text  x="654.13" y="79.5" ></text>
</g>
<g >
<title>Update Run Service.vi (289 millisecond(s), 0.85%)</title><rect x="57.9" y="117" width="10.1" height="15.0" fill="rgb(221,106,42)" rx="2" ry="2" />
<text  x="60.94" y="127.5" ></text>
</g>
<g >
<title>Get ControlRef from ctrlVI.vi (11 millisecond(s), 0.03%)</title><rect x="289.6" y="85" width="0.4" height="15.0" fill="rgb(236,122,47)" rx="2" ry="2" />
<text  x="292.58" y="95.5" ></text>
</g>
<g >
<title>Update Methods Registration.vi (8,893 millisecond(s), 26.24%)</title><rect x="671.4" y="85" width="309.6" height="15.0" fill="rgb(245,41,36)" rx="2" ry="2" />
<text  x="674.37" y="95.5" >Update Methods Registration.vi</text>
</g>
<g >
<title>Find Frame Source Terminal (by Name).vi (7 millisecond(s), 0.02%)</title><rect x="1011.7" y="85" width="0.3" height="15.0" fill="rgb(214,218,45)" rx="2" ry="2" />
<text  x="1014.71" y="95.5" ></text>
</g>
<g >
<title>Change Inheritance.vi (223 millisecond(s), 0.66%)</title><rect x="1107.1" y="117" width="7.7" height="15.0" fill="rgb(205,143,9)" rx="2" ry="2" />
<text  x="1110.07" y="127.5" ></text>
</g>
<g >
<title>Get SubVI Reference (by Name).vi (5 millisecond(s), 0.01%)</title><rect x="373.5" y="69" width="0.2" height="15.0" fill="rgb(234,64,16)" rx="2" ry="2" />
<text  x="376.50" y="79.5" ></text>
</g>
<g >
<title>Save LVClass.vi (1,814 millisecond(s), 5.35%)</title><rect x="1031.5" y="117" width="63.1" height="15.0" fill="rgb(221,128,20)" rx="2" ry="2" />
<text  x="1034.49" y="127.5" >Save L..</text>
</g>
<g >
<title>Get Event Structure (by Name).vi (9 millisecond(s), 0.03%)</title><rect x="991.5" y="85" width="0.3" height="15.0" fill="rgb(253,208,40)" rx="2" ry="2" />
<text  x="994.47" y="95.5" ></text>
</g>
<g >
<title>Add Control to Server ClusterDef.vi (505 millisecond(s), 1.49%)</title><rect x="1013.1" y="101" width="17.6" height="15.0" fill="rgb(207,63,53)" rx="2" ry="2" />
<text  x="1016.09" y="111.5" ></text>
</g>
<g >
<title>Create Message Setter.vi (580 millisecond(s), 1.71%)</title><rect x="329.1" y="85" width="20.2" height="15.0" fill="rgb(240,45,16)" rx="2" ry="2" />
<text  x="332.13" y="95.5" ></text>
</g>
<g >
<title>Save VI at Path.vi (198 millisecond(s), 0.58%)</title><rect x="290.1" y="85" width="6.9" height="15.0" fill="rgb(243,133,38)" rx="2" ry="2" />
<text  x="293.06" y="95.5" ></text>
</g>
<g >
<title>Create Impl Class.vi (766 millisecond(s), 2.26%)</title><rect x="1114.8" y="117" width="26.7" height="15.0" fill="rgb(253,153,30)" rx="2" ry="2" />
<text  x="1117.83" y="127.5" >C..</text>
</g>
<g >
<title>Generate RPC Methods.vi (12,719 millisecond(s), 37.52%)</title><rect x="570.0" y="117" width="442.8" height="15.0" fill="rgb(207,136,31)" rx="2" ry="2" />
<text  x="572.96" y="127.5" >Generate RPC Methods.vi</text>
</g>
<g >
<title>Create Enums For Registration.vi (7 millisecond(s), 0.02%)</title><rect x="393.5" y="101" width="0.3" height="15.0" fill="rgb(214,15,29)" rx="2" ry="2" />
<text  x="396.54" y="111.5" ></text>
</g>
<g >
<title>Create Message Data Element.vi (12 millisecond(s), 0.04%)</title><rect x="275.5" y="53" width="0.4" height="15.0" fill="rgb(247,50,1)" rx="2" ry="2" />
<text  x="278.47" y="63.5" ></text>
</g>
<g >
<title>Update Method Accessors.vi (159 millisecond(s), 0.47%)</title><rect x="981.0" y="101" width="5.5" height="15.0" fill="rgb(245,163,20)" rx="2" ry="2" />
<text  x="983.96" y="111.5" ></text>
</g>
<g >
<title>Add Control to Cluster (from src ref).vi (391 millisecond(s), 1.15%)</title><rect x="1016.2" y="85" width="13.6" height="15.0" fill="rgb(236,201,33)" rx="2" ry="2" />
<text  x="1019.18" y="95.5" ></text>
</g>
<g >
<title>Create Folder at Location.vi (4 millisecond(s), 0.01%)</title><rect x="587.1" y="85" width="0.2" height="15.0" fill="rgb(252,166,19)" rx="2" ry="2" />
<text  x="590.11" y="95.5" ></text>
</g>
<g >
<title>Create Methods.vi (11 millisecond(s), 0.03%)</title><rect x="1160.4" y="117" width="0.4" height="15.0" fill="rgb(218,122,3)" rx="2" ry="2" />
<text  x="1163.39" y="127.5" ></text>
</g>
<g >
<title>Get Message Placement Cluster.vi (22 millisecond(s), 0.06%)</title><rect x="275.9" y="53" width="0.8" height="15.0" fill="rgb(224,228,2)" rx="2" ry="2" />
<text  x="278.91" y="63.5" ></text>
</g>
<g >
<title>Get SubVI References.vi (7 millisecond(s), 0.02%)</title><rect x="985.4" y="69" width="0.3" height="15.0" fill="rgb(218,114,8)" rx="2" ry="2" />
<text  x="988.44" y="79.5" ></text>
</g>
<g >
<title>Generate RPC Messages.vi (3,518 millisecond(s), 10.38%)</title><rect x="271.4" y="133" width="122.5" height="15.0" fill="rgb(221,23,38)" rx="2" ry="2" />
<text  x="274.41" y="143.5" >Generate RPC Me..</text>
</g>
<g >
<title>Create Message Getter.vi (627 millisecond(s), 1.85%)</title><rect x="307.3" y="85" width="21.8" height="15.0" fill="rgb(243,169,23)" rx="2" ry="2" />
<text  x="310.31" y="95.5" >C..</text>
</g>
<g >
<title>Get Bundler.vi (8 millisecond(s), 0.02%)</title><rect x="975.2" y="69" width="0.3" height="15.0" fill="rgb(225,21,18)" rx="2" ry="2" />
<text  x="978.24" y="79.5" ></text>
</g>
<g >
<title>Get SubVI Terminal (by Name).vi (11 millisecond(s), 0.03%)</title><rect x="301.1" y="69" width="0.4" height="15.0" fill="rgb(227,86,13)" rx="2" ry="2" />
<text  x="304.15" y="79.5" ></text>
</g>
<g >
<title>Wire Between Unbundle And Bundle For Message Converter With Oneof.vi (40 millisecond(s), 0.12%)</title><rect x="305.9" y="85" width="1.4" height="15.0" fill="rgb(210,69,16)" rx="2" ry="2" />
<text  x="308.93" y="95.5" ></text>
</g>
<g >
<title>Generate User Service.vi (1,769 millisecond(s), 5.22%)</title><rect x="1095.8" y="133" width="61.6" height="15.0" fill="rgb(211,174,39)" rx="2" ry="2" />
<text  x="1098.84" y="143.5" >Genera..</text>
</g>
<g >
<title>Get Event Case Terminals For RPC VI connection.vi (29 millisecond(s), 0.09%)</title><rect x="1149.0" y="85" width="1.0" height="15.0" fill="rgb(210,56,44)" rx="2" ry="2" />
<text  x="1152.03" y="95.5" ></text>
</g>
<g >
<title>Save VI at Path.vi (94 millisecond(s), 0.28%)</title><rect x="297.5" y="85" width="3.3" height="15.0" fill="rgb(225,198,8)" rx="2" ry="2" />
<text  x="300.51" y="95.5" ></text>
</g>
<g >
<title>Clear Methods Registration.vi (67 millisecond(s), 0.20%)</title><rect x="649.3" y="85" width="2.3" height="15.0" fill="rgb(219,5,25)" rx="2" ry="2" />
<text  x="652.29" y="95.5" ></text>
</g>
<g >
<title>Open LVClass.vi (7 millisecond(s), 0.02%)</title><rect x="1100.7" y="85" width="0.3" height="15.0" fill="rgb(246,121,35)" rx="2" ry="2" />
<text  x="1103.74" y="95.5" ></text>
</g>
<g >
<title>Get NamedBundler Input.vi (11 millisecond(s), 0.03%)</title><rect x="976.1" y="69" width="0.3" height="15.0" fill="rgb(237,87,41)" rx="2" ry="2" />
<text  x="979.06" y="79.5" ></text>
</g>
<g >
<title>Get SubVI Terminal (by Name).vi (79 millisecond(s), 0.23%)</title><rect x="977.3" y="69" width="2.8" height="15.0" fill="rgb(235,43,50)" rx="2" ry="2" />
<text  x="980.34" y="79.5" ></text>
</g>
<g >
<title>Create Message Accessors.vi (2,430 millisecond(s), 7.17%)</title><rect x="307.3" y="117" width="84.6" height="15.0" fill="rgb(210,10,47)" rx="2" ry="2" />
<text  x="310.31" y="127.5" >Create Me..</text>
</g>
<g >
<title>Save LVClass.vi (22 millisecond(s), 0.06%)</title><rect x="1140.7" y="101" width="0.8" height="15.0" fill="rgb(227,65,11)" rx="2" ry="2" />
<text  x="1143.74" y="111.5" ></text>
</g>
<g >
<title>Create Oneof Message Converters (Rich to Flat).vi (136 millisecond(s), 0.40%)</title><rect x="297.5" y="101" width="4.7" height="15.0" fill="rgb(241,138,27)" rx="2" ry="2" />
<text  x="300.47" y="111.5" ></text>
</g>
<g >
<title>Set Bundler Input Count.vi (7 millisecond(s), 0.02%)</title><rect x="980.1" y="69" width="0.3" height="15.0" fill="rgb(252,45,54)" rx="2" ry="2" />
<text  x="983.14" y="79.5" ></text>
</g>
<g >
<title>Update Bind Method Constants.vi (79 millisecond(s), 0.23%)</title><rect x="666.8" y="85" width="2.8" height="15.0" fill="rgb(253,218,8)" rx="2" ry="2" />
<text  x="669.81" y="95.5" ></text>
</g>
<g >
<title>Traverse for GObjects.vi (12 millisecond(s), 0.04%)</title><rect x="650.7" y="53" width="0.4" height="15.0" fill="rgb(224,10,23)" rx="2" ry="2" />
<text  x="653.66" y="63.5" ></text>
</g>
<g >
<title>Get Constant (by Name).vi (23 millisecond(s), 0.07%)</title><rect x="352.6" y="69" width="0.8" height="15.0" fill="rgb(207,17,8)" rx="2" ry="2" />
<text  x="355.65" y="79.5" ></text>
</g>
<g >
<title>Save VI at Path.vi (436 millisecond(s), 1.29%)</title><rect x="651.7" y="85" width="15.1" height="15.0" fill="rgb(252,160,1)" rx="2" ry="2" />
<text  x="654.65" y="95.5" ></text>
</g>
<g >
<title>Update Bind Methods.vi (9,528 millisecond(s), 28.11%)</title><rect x="649.3" y="101" width="331.7" height="15.0" fill="rgb(253,225,44)" rx="2" ry="2" />
<text  x="652.25" y="111.5" >Update Bind Methods.vi</text>
</g>
<g >
<title>Create RPC Impl VI.vi (88 millisecond(s), 0.26%)</title><rect x="1095.8" y="101" width="3.1" height="15.0" fill="rgb(211,110,47)" rx="2" ry="2" />
<text  x="1098.84" y="111.5" ></text>
</g>
<g >
<title>Get ControlRef from ctrlVI.vi (22 millisecond(s), 0.06%)</title><rect x="275.9" y="37" width="0.8" height="15.0" fill="rgb(227,26,38)" rx="2" ry="2" />
<text  x="278.91" y="47.5" ></text>
</g>
<g >
<title>Get ControlRef from ClassItem.vi (21 millisecond(s), 0.06%)</title><rect x="1029.9" y="85" width="0.7" height="15.0" fill="rgb(232,74,7)" rx="2" ry="2" />
<text  x="1032.88" y="95.5" ></text>
</g>
<g >
<title>Get Case Structure (by Name).vi (7 millisecond(s), 0.02%)</title><rect x="975.5" y="69" width="0.3" height="15.0" fill="rgb(230,81,31)" rx="2" ry="2" />
<text  x="978.53" y="79.5" ></text>
</g>
<g >
<title>Get grpc-library ref.vi (17 millisecond(s), 0.05%)</title><rect x="1030.9" y="101" width="0.6" height="15.0" fill="rgb(233,189,7)" rx="2" ry="2" />
<text  x="1033.91" y="111.5" ></text>
</g>
<g >
<title>Create Message Accessor.vi (2,430 millisecond(s), 7.17%)</title><rect x="307.3" y="101" width="84.6" height="15.0" fill="rgb(205,104,16)" rx="2" ry="2" />
<text  x="310.31" y="111.5" >Create Me..</text>
</g>
<g >
<title>Get VIRef from Library.vi (23 millisecond(s), 0.07%)</title><rect x="985.7" y="69" width="0.8" height="15.0" fill="rgb(251,142,21)" rx="2" ry="2" />
<text  x="988.71" y="79.5" ></text>
</g>
<g >
<title>Save LVClass.vi (73 millisecond(s), 0.22%)</title><rect x="1152.7" y="117" width="2.6" height="15.0" fill="rgb(226,139,54)" rx="2" ry="2" />
<text  x="1155.74" y="127.5" ></text>
</g>
<g >
<title>Find Control Ref in Cluster.vi (3 millisecond(s), 0.01%)</title><rect x="1029.8" y="85" width="0.1" height="15.0" fill="rgb(239,114,25)" rx="2" ry="2" />
<text  x="1032.77" y="95.5" ></text>
</g>
<g >
<title>Save LVClass.vi (45 millisecond(s), 0.13%)</title><rect x="1099.2" y="85" width="1.5" height="15.0" fill="rgb(222,142,10)" rx="2" ry="2" />
<text  x="1102.16" y="95.5" ></text>
</g>
<g >
<title>Create Proto Parser.vi (46 millisecond(s), 0.14%)</title><rect x="1160.8" y="117" width="1.6" height="15.0" fill="rgb(214,120,9)" rx="2" ry="2" />
<text  x="1163.76" y="127.5" ></text>
</g>
<g >
<title>Open Library.vi (140 millisecond(s), 0.41%)</title><rect x="1135.9" y="101" width="4.8" height="15.0" fill="rgb(218,187,17)" rx="2" ry="2" />
<text  x="1138.87" y="111.5" ></text>
</g>
<g >
<title>Create Messages For Registration.vi (3 millisecond(s), 0.01%)</title><rect x="393.8" y="101" width="0.1" height="15.0" fill="rgb(250,123,37)" rx="2" ry="2" />
<text  x="396.78" y="111.5" ></text>
</g>
<g >
<title>Delete Message Template Files.vi (494 millisecond(s), 1.46%)</title><rect x="252.3" y="133" width="17.2" height="15.0" fill="rgb(224,15,51)" rx="2" ry="2" />
<text  x="255.31" y="143.5" ></text>
</g>
<g >
<title>Load ProtoFile.vi (3 millisecond(s), 0.01%)</title><rect x="1162.6" y="117" width="0.1" height="15.0" fill="rgb(229,192,35)" rx="2" ry="2" />
<text  x="1165.59" y="127.5" ></text>
</g>
<g >
<title>Update Method Getter.vi (90 millisecond(s), 0.27%)</title><rect x="981.0" y="85" width="3.1" height="15.0" fill="rgb(233,51,2)" rx="2" ry="2" />
<text  x="983.97" y="95.5" ></text>
</g>
<g >
<title>Add File to ProjectItem.vi (214 millisecond(s), 0.63%)</title><rect x="10.9" y="117" width="7.4" height="15.0" fill="rgb(209,62,18)" rx="2" ry="2" />
<text  x="13.87" y="127.5" ></text>
</g>
<g >
<title>Get Unbundler.vi (7 millisecond(s), 0.02%)</title><rect x="306.7" y="69" width="0.3" height="15.0" fill="rgb(234,216,17)" rx="2" ry="2" />
<text  x="309.73" y="79.5" ></text>
</g>
<g >
<title>all (33,895 millisecond(s), 100%)</title><rect x="10.0" y="165" width="1180.0" height="15.0" fill="rgb(246,33,1)" rx="2" ry="2" />
<text  x="13.00" y="175.5" ></text>
</g>
<g >
<title>Copy Library Item.vi (1,236 millisecond(s), 3.65%)</title><rect x="514.2" y="101" width="43.0" height="15.0" fill="rgb(240,11,54)" rx="2" ry="2" />
<text  x="517.22" y="111.5" >Copy..</text>
</g>
<g >
<title>Create Folder at Location.vi (3 millisecond(s), 0.01%)</title><rect x="557.2" y="101" width="0.2" height="15.0" fill="rgb(207,183,43)" rx="2" ry="2" />
<text  x="560.24" y="111.5" ></text>
</g>
<g >
<title>Copy Library Item.vi (1,215 millisecond(s), 3.58%)</title><rect x="205.9" y="117" width="42.3" height="15.0" fill="rgb(240,96,48)" rx="2" ry="2" />
<text  x="208.87" y="127.5" >Cop..</text>
</g>
<g >
<title>Delete RPC VI Template.vi (53 millisecond(s), 0.16%)</title><rect x="1098.9" y="101" width="1.8" height="15.0" fill="rgb(236,19,12)" rx="2" ry="2" />
<text  x="1101.90" y="111.5" ></text>
</g>
<g >
<title>Get VIRef from Library.vi (9 millisecond(s), 0.03%)</title><rect x="983.8" y="69" width="0.3" height="15.0" fill="rgb(207,226,14)" rx="2" ry="2" />
<text  x="986.79" y="79.5" ></text>
</g>
<g >
<title>Update Messages MetaData.vi (57 millisecond(s), 0.17%)</title><rect x="391.9" y="117" width="2.0" height="15.0" fill="rgb(253,55,36)" rx="2" ry="2" />
<text  x="394.91" y="127.5" ></text>
</g>
<g >
<title>Create Folder at Location.vi (3 millisecond(s), 0.01%)</title><rect x="1135.8" y="101" width="0.1" height="15.0" fill="rgb(239,56,27)" rx="2" ry="2" />
<text  x="1138.77" y="111.5" ></text>
</g>
<g >
<title>Add File to ProjectItem.vi (35 millisecond(s), 0.10%)</title><rect x="288.3" y="85" width="1.2" height="15.0" fill="rgb(243,8,26)" rx="2" ry="2" />
<text  x="291.30" y="95.5" ></text>
</g>
<g >
<title>Wire Two Terminals.vi (8 millisecond(s), 0.02%)</title><rect x="307.0" y="69" width="0.3" height="15.0" fill="rgb(233,218,7)" rx="2" ry="2" />
<text  x="310.03" y="79.5" ></text>
</g>
<g >
<title>Traverse for GObjects.vi (15 millisecond(s), 0.04%)</title><rect x="297.0" y="85" width="0.5" height="15.0" fill="rgb(211,220,28)" rx="2" ry="2" />
<text  x="299.95" y="95.5" ></text>
</g>
<g >
<title>Save VI at Path.vi (1,765 millisecond(s), 5.21%)</title><rect x="587.8" y="85" width="61.5" height="15.0" fill="rgb(229,54,13)" rx="2" ry="2" />
<text  x="590.81" y="95.5" >Save V..</text>
</g>
<g >
<title>Get RPC VI template.vi (7 millisecond(s), 0.02%)</title><rect x="1100.7" y="101" width="0.3" height="15.0" fill="rgb(220,211,52)" rx="2" ry="2" />
<text  x="1103.74" y="111.5" ></text>
</g>
<g >
<title>Traverse for GObjects.vi (15 millisecond(s), 0.04%)</title><rect x="670.8" y="69" width="0.6" height="15.0" fill="rgb(237,55,32)" rx="2" ry="2" />
<text  x="673.84" y="79.5" ></text>
</g>
<g >
<title>Get VIRef from Library.vi (83 millisecond(s), 0.24%)</title><rect x="64.1" y="101" width="2.9" height="15.0" fill="rgb(213,5,5)" rx="2" ry="2" />
<text  x="67.12" y="111.5" ></text>
</g>
<g >
<title>Save VI at Path.vi (106 millisecond(s), 0.31%)</title><rect x="302.2" y="85" width="3.7" height="15.0" fill="rgb(250,108,0)" rx="2" ry="2" />
<text  x="305.24" y="95.5" ></text>
</g>
<g >
<title>Save VI at Path.vi (524 millisecond(s), 1.55%)</title><rect x="373.7" y="69" width="18.2" height="15.0" fill="rgb(230,66,50)" rx="2" ry="2" />
<text  x="376.66" y="79.5" ></text>
</g>
<g >
<title>Get SubVI Reference (by Name).vi (7 millisecond(s), 0.02%)</title><rect x="353.6" y="69" width="0.3" height="15.0" fill="rgb(253,122,6)" rx="2" ry="2" />
<text  x="356.62" y="79.5" ></text>
</g>
<g >
<title>Get Control (by Name).vi (10 millisecond(s), 0.03%)</title><rect x="983.0" y="69" width="0.3" height="15.0" fill="rgb(252,108,12)" rx="2" ry="2" />
<text  x="985.99" y="79.5" ></text>
</g>
<g >
<title>Check if File or Folder Exists.vi (4 millisecond(s), 0.01%)</title><rect x="267.1" y="117" width="0.2" height="15.0" fill="rgb(240,162,18)" rx="2" ry="2" />
<text  x="270.15" y="127.5" ></text>
</g>
<g >
<title>Get SubVI Terminal (by Name).vi (16 millisecond(s), 0.05%)</title><rect x="1012.2" y="85" width="0.5" height="15.0" fill="rgb(248,12,52)" rx="2" ry="2" />
<text  x="1015.16" y="95.5" ></text>
</g>
<g >
<title>Generate Descriptor VI.vi (36 millisecond(s), 0.11%)</title><rect x="270.2" y="133" width="1.2" height="15.0" fill="rgb(254,92,27)" rx="2" ry="2" />
<text  x="273.16" y="143.5" ></text>
</g>
<g >
<title>Get Control (by Name).vi (5 millisecond(s), 0.01%)</title><rect x="353.4" y="69" width="0.2" height="15.0" fill="rgb(220,17,51)" rx="2" ry="2" />
<text  x="356.43" y="79.5" ></text>
</g>
<g >
<title>Save Library.vi (62 millisecond(s), 0.18%)</title><rect x="1155.3" y="117" width="2.1" height="15.0" fill="rgb(225,183,29)" rx="2" ry="2" />
<text  x="1158.28" y="127.5" ></text>
</g>
<g >
<title>Create RPC Method.vi (2,278 millisecond(s), 6.72%)</title><rect x="570.0" y="101" width="79.3" height="15.0" fill="rgb(230,169,16)" rx="2" ry="2" />
<text  x="572.96" y="111.5" >Create RP..</text>
</g>
<g >
<title>Get Bundler.vi (9 millisecond(s), 0.03%)</title><rect x="306.0" y="69" width="0.3" height="15.0" fill="rgb(206,11,16)" rx="2" ry="2" />
<text  x="309.01" y="79.5" ></text>
</g>
<g >
<title>Get gRPC Id Terminal For Event SubDiagram.vi (13 millisecond(s), 0.04%)</title><rect x="1152.3" y="101" width="0.4" height="15.0" fill="rgb(244,94,10)" rx="2" ry="2" />
<text  x="1155.30" y="111.5" ></text>
</g>
<g >
<title>Proto Parser.vi (67 millisecond(s), 0.20%)</title><rect x="1160.4" y="133" width="2.3" height="15.0" fill="rgb(208,150,11)" rx="2" ry="2" />
<text  x="1163.38" y="143.5" ></text>
</g>
<g >
<title>Delete Method Template Files.vi (89 millisecond(s), 0.26%)</title><rect x="566.8" y="117" width="3.2" height="15.0" fill="rgb(223,90,17)" rx="2" ry="2" />
<text  x="569.84" y="127.5" ></text>
</g>
<g >
<title>Connect Terminals.vi (7,541 millisecond(s), 22.25%)</title><rect x="712.7" y="69" width="262.5" height="15.0" fill="rgb(217,20,39)" rx="2" ry="2" />
<text  x="715.72" y="79.5" >Connect Terminals.vi</text>
</g>
<g >
<title>Set NamedBundler Input Count.vi (16 millisecond(s), 0.05%)</title><rect x="980.4" y="69" width="0.6" height="15.0" fill="rgb(227,35,51)" rx="2" ry="2" />
<text  x="983.40" y="79.5" ></text>
</g>
</g>
</svg>
